<svg width="1200" height="1200" viewBox="0 0 1200 1200" fill="none" xmlns="http://www.w3.org/2000/svg">
<mask id="mask0_409_3640" style="mask-type:alpha" maskUnits="userSpaceOnUse" x="0" y="0" width="1197" height="1197">
<circle cx="598.033" cy="598.033" r="598.033" fill="#D9D9D9"/>
</mask>
<g mask="url(#mask0_409_3640)">
<path d="M925.883 1091.76C923.138 1093.73 920.001 1095.69 917.256 1097.65C914.118 1099.61 911.373 1101.57 908.236 1103.14C905.491 1104.71 903.138 1106.27 900.393 1107.84C900.001 1108.24 899.609 1108.24 899.216 1108.63C890.197 1114.12 880.785 1119.22 871.373 1123.92C868.628 1125.49 865.491 1127.06 862.746 1128.24C862.746 1128.24 862.354 1128.63 861.962 1128.63C858.824 1130.2 855.687 1131.76 852.55 1133.33C846.275 1136.47 839.609 1139.22 833.334 1141.96C830.197 1143.53 826.667 1144.71 823.53 1145.88C820.393 1147.06 816.864 1148.63 813.726 1149.8C810.589 1150.98 807.06 1152.55 803.922 1153.73C803.922 1153.73 803.922 1153.73 803.53 1153.73C800.393 1154.9 796.864 1156.08 793.726 1157.25C786.667 1159.61 779.216 1161.96 772.158 1164.31C769.805 1165.1 767.06 1165.88 764.707 1166.67C757.256 1169.02 749.805 1170.98 742.354 1172.55C739.609 1173.33 736.864 1173.73 733.726 1174.51C726.667 1176.08 719.216 1177.65 712.158 1179.22C710.589 1179.61 709.413 1179.61 707.844 1180C705.491 1180.39 702.746 1180.78 700.393 1181.18C696.864 1181.57 693.726 1182.35 690.197 1182.74C688.628 1183.14 687.06 1183.14 685.491 1183.53C683.53 1183.92 681.177 1184.31 678.824 1184.31C672.55 1185.1 665.883 1185.88 659.609 1186.67C657.648 1187.06 655.295 1187.06 653.334 1187.45H652.942C650.197 1187.84 647.452 1187.84 644.707 1188.24C641.962 1188.63 639.217 1188.63 636.471 1188.63C634.903 1188.63 632.942 1189.02 631.373 1189.02C628.236 1189.02 625.491 1189.41 622.746 1189.41C618.824 1189.41 615.295 1189.8 611.373 1189.8C607.452 1189.8 603.922 1189.8 600.001 1189.8C597.256 1189.8 594.511 1189.8 591.765 1189.8C426.275 1187.45 277.648 1117.25 171.373 1005.88C171.373 1005.88 171.373 1005.49 170.981 1005.49C159.216 994.902 169.413 938.431 216.864 902.745C276.471 857.647 419.217 829.412 419.217 829.412C419.217 829.412 474.511 820.392 679.609 863.137C799.609 888.235 890.981 924.706 941.962 1023.53C952.55 1043.92 963.138 1075.29 925.883 1091.76Z" fill="white"/>
<path d="M680.785 858.823C756.079 874.118 836.471 890.588 898.432 940.392C919.216 957.255 932.942 981.961 944.315 1005.88C949.805 1017.65 955.295 1029.8 959.609 1042.75C961.962 1051.37 965.491 1061.18 963.53 1071.37C963.138 1074.12 960.785 1077.65 958.824 1079.61C949.805 1088.63 940.001 1094.12 930.197 1101.18C872.55 1141.18 806.275 1169.41 737.648 1184.31C584.707 1217.65 419.216 1191.76 284.707 1111.37C240.001 1084.31 198.824 1051.37 163.53 1012.55C159.609 1007.84 159.609 1000 159.609 994.902C160.001 983.137 163.138 971.765 167.06 961.176C176.471 936.863 188.628 912.549 209.413 895.686C224.315 885.49 240.393 876.863 256.864 869.804C308.628 847.843 363.138 832.549 419.216 826.274C423.922 825.882 424.707 832.549 420.001 833.333C366.275 844.314 312.942 860.784 263.138 883.137C245.099 892.157 225.883 900 211.373 914.118C197.648 929.02 187.844 947.451 180.001 966.274C174.903 977.647 171.373 995.686 172.942 1004.71C197.648 1034.12 226.667 1060 258.04 1082.35C429.805 1202.35 690.589 1210.2 873.334 1110.2C889.805 1101.18 905.883 1090.98 921.177 1080.39C928.628 1075.29 936.471 1070.98 942.354 1065.1C942.746 1064.71 942.354 1065.1 942.354 1065.49C942.354 1065.88 941.962 1066.27 941.962 1066.27C942.354 1061.57 940.785 1055.29 938.824 1049.02C931.765 1026.27 920.393 1002.35 908.236 981.569C889.02 950.588 856.471 930.98 823.53 915.294C800.785 904.706 776.863 896.471 752.55 888.627C728.236 880.784 703.53 874.118 678.824 868.235C672.55 866.667 674.511 857.647 680.785 858.823Z" fill="black"/>
<path d="M898.434 943.921C868.63 916.862 773.336 874.51 701.963 857.255C670.591 849.804 596.865 828.235 540.787 822.745C510.591 819.608 454.905 827.059 420.003 828.235C386.277 829.412 272.552 852.549 218.042 890.98C206.277 899.215 153.728 951.372 130.983 1085.1C113.336 1188.24 91.3751 1321.96 90.5908 1367.45H984.316C999.218 1101.57 929.414 972.157 898.434 943.921Z" fill="black"/>
<path d="M891.766 951.372C873.726 936.078 850.589 924.314 829.021 914.118C795.295 898.039 760.001 884.314 723.923 873.725C687.844 863.922 650.197 854.51 614.119 845.882C589.805 840.392 565.099 835.686 540.393 832.941C516.472 830.98 490.589 833.725 466.276 835.294C447.844 836.863 428.628 837.647 409.805 839.216C354.903 846.667 299.217 861.176 249.021 884.706C239.609 889.412 230.589 894.118 222.354 900.392C201.57 919.216 186.668 945.49 174.903 970.98C155.687 1013.33 145.099 1059.61 138.04 1105.49C132.158 1141.57 125.099 1181.96 119.609 1218.04C112.158 1267.45 103.53 1317.65 101.177 1367.45L90.9814 1357.25H984.315L974.119 1366.67C979.609 1258.43 974.903 1147.06 940.785 1043.14C929.413 1010.98 915.687 976.471 891.766 951.372ZM905.491 936.471C920.393 950.588 930.197 966.667 940.785 983.529C970.589 1032.55 984.707 1088.24 992.55 1144.71C1003.53 1218.43 1003.14 1293.73 994.903 1367.84C994.903 1373.33 990.197 1377.65 984.707 1377.25H91.3736C85.8834 1377.25 81.1775 1372.55 81.1775 1367.06C81.5696 1353.73 83.1383 1341.18 84.3147 1328.24C88.6285 1290.2 94.5108 1252.55 100.785 1214.9C106.276 1178.82 113.727 1138.43 119.609 1102.35C127.452 1054.9 138.432 1007.06 158.04 963.137C171.374 934.902 186.668 907.059 210.589 885.882C220.001 878.823 230.197 872.941 240.785 867.843C293.727 843.137 350.197 828.627 407.452 820.392C426.276 818.823 445.491 818.039 464.707 816.078C490.589 814.118 515.687 811.372 542.354 813.333C568.236 816.078 593.334 820.784 618.432 826.274C656.079 834.902 692.55 843.922 729.805 854.118C766.668 865.098 802.746 878.823 837.648 895.294C861.57 907.843 884.315 918.823 905.491 936.471Z" fill="black"/>
<path d="M914.903 1367.45C888.628 1118.04 836.864 990.98 836.864 990.98C824.707 923.922 792.55 870.98 782.354 866.275C763.923 858.039 760.785 860.784 760.785 860.784C790.589 901.177 805.883 969.804 809.805 1005.49C697.256 1054.51 489.413 1020.39 416.864 1004.71C392.942 961.961 347.06 872.549 307.06 838.431C303.53 835.686 298.824 835.294 294.903 836.863C291.766 838.431 287.452 841.177 283.53 845.882C281.57 848.235 281.57 851.373 283.923 853.726C284.315 854.118 284.707 854.51 285.099 854.902C351.766 927.843 388.236 1055.29 379.217 1153.73C363.138 1328.63 332.55 1367.06 332.55 1367.06H914.903V1367.45Z" fill="white"/>
<path d="M907.452 1360.78C903.923 1347.45 901.57 1334.51 900.785 1320.78C889.021 1209.8 872.55 1097.25 833.334 992.549L838.825 994.51C836.864 995.686 834.511 994.902 833.334 993.333C827.844 967.059 820.001 941.176 808.236 916.863C800.393 901.176 792.55 885.098 780.393 872.941C775.687 870.588 769.413 868.627 764.315 867.059C763.53 866.667 762.746 866.667 762.354 866.667C762.354 866.667 762.354 866.667 762.746 866.667H763.138C763.531 866.667 763.138 866.667 763.923 865.882L764.707 858.431C768.236 864.314 776.08 878.824 778.825 884.706C791.374 910.98 799.217 939.608 805.491 967.843C807.844 980.392 810.197 993.333 811.766 1006.27C811.766 1007.45 811.374 1008.24 810.197 1009.02C748.236 1034.9 679.609 1037.25 613.334 1036.47C580.001 1035.69 546.668 1032.94 513.727 1029.41C480.785 1025.49 447.844 1020.39 414.903 1013.73C412.55 1013.33 410.981 1011.76 409.805 1010.2C393.727 981.569 378.825 953.333 362.354 925.49C346.276 898.431 329.413 870.196 306.668 848.235L302.746 844.706C297.256 840.784 290.981 847.843 287.06 851.373C286.668 851.765 286.668 852.157 287.06 852.549L287.452 852.941C300.001 867.059 310.981 882.353 320.785 898.431C338.04 926.667 351.374 956.471 365.491 986.275C385.883 1032.16 386.668 1083.14 386.276 1132.55C383.923 1181.57 378.04 1230.59 370.197 1278.82C363.531 1311.76 357.648 1346.27 340.001 1375.69L332.158 1359.22C515.295 1356.47 723.923 1358.04 907.452 1360.78ZM922.746 1374.51C734.511 1377.25 520.393 1378.82 332.158 1377.65L324.315 1361.18C336.08 1341.57 341.57 1318.82 347.844 1296.86C358.04 1258.04 364.707 1218.43 369.413 1178.43L372.158 1154.51C379.217 1098.43 361.178 1043.92 349.021 989.804C339.609 942.745 315.687 898.824 284.315 862.745L280.393 858.431L280.001 858.039L279.609 857.647C277.648 855.294 276.472 852.549 276.472 849.412C276.864 843.922 281.962 839.608 285.883 836.471C293.727 829.804 303.923 828.627 311.766 836.471C325.491 848.235 336.472 861.961 347.06 876.078C376.08 915.294 399.609 958.824 423.138 1001.57L418.04 997.647C482.354 1011.37 547.844 1021.18 613.727 1025.49C678.825 1028.63 747.06 1028.63 808.236 1003.53L806.668 1006.27C805.099 993.726 803.138 981.176 800.393 968.627C794.903 943.922 786.668 919.608 775.687 896.471C773.727 892.157 769.021 883.922 766.668 879.608C763.531 874.118 759.609 869.02 755.687 864.314C753.334 861.569 754.903 857.647 757.256 856.078C765.099 852.157 774.119 856.863 781.57 859.608C783.138 860.392 785.883 861.569 787.452 862.745C801.57 876.078 809.413 894.902 817.256 912.157C822.746 924.706 827.06 937.647 830.589 950.588C834.511 963.529 837.256 976.863 839.609 990.196L833.727 987.451C835.687 986.275 838.04 986.667 839.217 988.627C866.276 1064.71 885.099 1143.92 900.393 1223.14C906.668 1254.9 911.766 1286.67 916.864 1318.43C921.178 1336.86 922.354 1356.47 922.746 1374.51Z" fill="black"/>
<path d="M443.923 1092.16C454.319 1092.16 462.746 1083.73 462.746 1073.33C462.746 1062.94 454.319 1054.51 443.923 1054.51C433.527 1054.51 425.099 1062.94 425.099 1073.33C425.099 1083.73 433.527 1092.16 443.923 1092.16Z" fill="black"/>
<path d="M806.668 1069.8C815.764 1069.8 823.138 1062.43 823.138 1053.33C823.138 1044.24 815.764 1036.86 806.668 1036.86C797.571 1036.86 790.197 1044.24 790.197 1053.33C790.197 1062.43 797.571 1069.8 806.668 1069.8Z" fill="black"/>
<path d="M717.644 963.138C709.409 1003.53 656.076 1027.84 566.272 991.373C472.939 953.726 432.546 863.922 422.35 837.255C477.644 733.726 439.213 661.961 439.213 661.961C566.664 650.981 678.037 800 678.037 800L695.292 873.726C696.86 880 699.997 885.491 704.703 889.412C712.939 903.922 722.743 937.255 717.644 963.138Z" fill="white"/>
<path d="M420.391 838.432C427.842 827.059 432.548 813.726 435.685 800.785C441.568 773.726 443.529 746.275 443.921 718.824V708.628C442.744 698.432 439.215 687.844 435.293 678.432C430.195 665.883 448.627 658.04 454.509 670.589C455.293 672.157 455.293 674.902 455.293 676.471C456.47 729.804 458.823 798.432 425.097 842.746C422.744 845.099 418.038 841.569 420.391 838.432Z" fill="black"/>
<path d="M682.351 799.216C688.233 802.746 690.194 807.452 690.978 812.158C693.331 821.569 692.547 831.766 694.9 841.569C696.861 850.981 702.743 860.001 704.312 869.805C706.272 880.001 712.155 901.569 714.508 912.158C715.292 914.511 713.723 917.256 710.978 917.648C709.41 918.04 708.233 917.648 707.057 916.864C701.959 912.55 699.606 908.236 696.469 902.746C691.371 893.334 687.841 884.707 684.704 874.118C681.959 864.707 683.135 854.511 680.782 844.707C678.821 835.295 673.331 826.275 671.37 816.471C670.194 811.765 669.802 806.667 673.331 800.785C675.684 798.432 679.606 797.648 682.351 799.216Z" fill="black"/>
<path d="M710.587 902.745C635.685 898.824 574.509 875.294 514.901 769.02C565.097 813.334 624.313 830.196 686.666 838.04L694.901 874.118C696.47 880.392 705.882 898.824 710.587 902.745Z" fill="black"/>
<path d="M707.452 888.236C720.785 913.334 728.628 944.706 720.393 972.549C714.118 992.157 696.079 1006.67 676.471 1012.16C630.981 1024.31 578.432 1005.1 538.04 983.53C488.236 955.687 451.373 909.02 427.844 858.04C426.275 854.118 431.765 850.981 434.118 854.902C442.354 871.373 451.765 887.451 462.354 901.961C472.942 916.863 485.099 930.589 498.824 942.745C538.824 978.824 592.942 1001.18 647.06 1001.18C702.746 999.608 723.922 970.196 710.981 916.079C709.02 907.451 705.883 898.432 701.569 890.981C699.216 887.843 705.099 884.314 707.452 888.236Z" fill="black"/>
<path d="M859.215 417.255C866.274 450.196 869.803 476.863 850.587 564.706C831.764 652.157 877.646 670.196 769.019 810.196C724.705 867.451 617.254 851.373 530.195 792.157C500.783 772.157 488.234 720.785 466.274 684.314C449.019 655.687 441.176 685.49 418.431 660.785C387.45 627.059 350.195 559.216 368.627 439.216C398.431 244.706 552.548 221.961 666.666 243.53C781.568 265.49 840.391 330.588 859.215 417.255Z" fill="white"/>
<path d="M438.038 695.686C429.019 680.392 417.254 667.059 406.274 652.941C395.685 638.432 387.058 622.353 379.999 605.883C333.333 491.373 351.372 330.196 465.882 262.745C513.333 235.294 570.587 228.628 623.921 232.941C738.038 241.177 842.744 293.726 867.45 414.51C880.784 467.843 862.744 522.745 852.548 574.902C847.842 600.785 851.764 627.451 851.372 654.118C850.98 681.177 843.529 708.235 833.333 733.334C827.058 750.588 816.078 765.882 804.705 780C785.882 802.745 767.058 825.883 743.136 843.53C737.646 847.451 727.842 849.412 721.176 850.196C702.744 852.941 684.705 853.726 666.274 852.549C594.117 849.412 516.862 814.51 487.842 744.706C486.666 741.961 490.587 740 492.156 742.353C529.803 801.961 598.823 831.373 667.45 835.294C688.627 836.471 710.195 836.079 730.98 831.765C741.176 826.667 750.195 817.647 758.823 809.412C779.999 788.235 801.568 765.49 816.862 739.608C835.293 704.706 845.489 666.667 842.352 627.059C841.568 609.412 841.176 590.981 844.705 573.334C847.842 555.686 851.764 538.824 854.117 520.785C856.47 503.53 857.646 485.883 857.646 468.628C855.685 418.039 839.215 365.883 807.058 326.667C736.078 238.432 568.235 215.294 473.725 275.686C414.117 312.549 386.274 381.569 377.254 448.628C363.529 529.02 367.45 608.235 431.372 666.667L450.195 686.275C457.646 694.902 444.313 705.098 438.038 695.686Z" fill="black"/>
<path d="M484.311 570.98C484.311 570.98 472.155 512.157 414.9 519.215C365.488 525.49 348.233 643.921 460.39 676.863" fill="white"/>
<path d="M455.293 625.49C446.274 620.392 439.999 611.765 439.607 601.176C439.999 593.333 441.176 584.314 439.215 576.471C438.038 569.02 430.195 567.059 424.313 567.451C418.038 568.627 414.117 576.471 412.94 582.745C412.94 583.137 412.548 584.314 412.548 584.706C412.156 586.667 409.019 586.667 408.235 584.706C403.137 569.412 414.509 552.549 430.98 554.51C454.117 556.078 457.254 580.392 452.94 598.823C450.587 606.667 453.725 613.725 458.038 620.392L458.823 621.569C460.784 623.921 457.646 627.059 455.293 625.49Z" fill="black"/>
<path d="M769.018 529.412C774.9 557.255 785.881 583.137 799.606 607.451C811.763 637.255 780.39 665.49 752.547 664.313C749.41 664.313 749.018 660 751.763 659.215C769.41 653.725 785.488 641.961 788.234 623.921C789.41 618.431 787.841 613.725 785.096 609.019C772.155 584.706 764.312 556.862 766.273 529.412C766.273 527.451 769.018 527.451 769.018 529.412Z" fill="black"/>
<path d="M482.352 571.373C473.332 548.235 453.725 526.275 427.45 526.667C425.097 526.275 421.176 527.059 418.823 527.059C412.156 527.451 406.666 529.804 401.568 534.51C376.47 559.608 380.783 603.922 401.176 631.765C408.234 641.569 417.254 650.196 427.45 657.255C437.646 664.314 449.019 669.804 461.176 674.51C463.921 675.294 462.744 679.608 459.999 679.216C433.725 673.726 408.627 660.784 391.372 639.216C364.705 607.059 359.215 553.333 390.979 521.961C398.038 515.686 407.842 510.98 417.646 510.98C420.783 510.98 425.489 510.196 428.627 510.98C445.097 511.765 460.783 520 470.979 532.941C479.999 543.922 485.097 557.255 486.666 570.588C486.666 572.941 483.136 573.726 482.352 571.373Z" fill="black"/>
<path d="M739.216 703.529C714.118 727.451 666.667 708.235 654.118 679.216C652.549 675.686 656.471 672.549 659.608 674.117C666.275 677.647 672.157 681.176 678.432 683.921C696.471 692.157 715.294 698.823 735.294 696.863C739.216 696.078 741.961 700.784 739.216 703.529Z" fill="black"/>
<path d="M622.746 569.412C613.334 569.02 606.275 561.177 607.06 551.765L607.452 540.785C607.844 531.373 615.687 524.314 625.099 525.099C634.511 525.491 641.57 533.334 640.785 542.746L640.393 553.726C640.001 562.746 632.158 569.804 622.746 569.412Z" fill="black"/>
<path d="M787.843 575.295C779.215 574.903 772.549 567.452 772.941 558.824L773.333 548.628C773.725 540.001 781.176 533.334 789.803 533.726C798.431 534.119 805.098 541.57 804.705 550.197L804.313 560.393C803.921 569.02 796.47 575.687 787.843 575.295Z" fill="black"/>
<path d="M658.04 548.236C645.099 539.608 630.981 533.726 615.295 536.863C610.197 537.647 605.099 539.216 601.962 542.746C600.785 544.314 598.04 543.922 598.04 541.569C598.432 533.726 605.099 528.628 611.373 525.491C623.53 519.216 640.393 520.393 651.373 528.628C655.295 530.981 668.628 545.491 661.569 548.628C660.001 549.412 659.217 549.02 658.04 548.236Z" fill="black"/>
<path d="M770.197 550.197C770.197 533.726 790.589 527.844 803.138 533.726C810.197 536.863 815.295 543.138 817.256 550.589C818.04 552.942 814.511 554.903 812.942 552.942C806.275 545.099 794.903 541.177 785.883 545.883C783.138 547.452 782.746 548.628 781.962 550.197C781.962 558.04 770.589 557.648 770.197 550.197Z" fill="black"/>
<path d="M676.864 483.53C685.099 486.275 693.334 478.824 691.766 469.804C690.981 465.098 689.02 460.392 685.099 456.863C673.334 446.275 624.707 436.863 595.295 450.589C569.413 463.138 639.217 470.981 676.864 483.53Z" fill="black"/>
<path d="M794.12 489.804C787.453 492.157 780.394 485.098 781.571 476.863C781.963 472.549 783.532 468.236 786.669 465.098C796.081 455.687 828.237 448.236 848.63 462.745C866.277 474.902 824.708 478.432 794.12 489.804Z" fill="black"/>
<path d="M871.372 237.256C777.254 210.589 767.058 259.216 672.941 207.452C578.823 155.295 408.235 190.197 376.47 311.373C376.47 311.373 323.921 343.53 320.392 454.51C318.039 529.02 356.862 597.256 382.352 633.726C399.607 661.961 417.647 682.746 428.235 701.569C445.098 731.765 453.333 764.707 453.333 764.707C457.254 727.059 466.274 692.55 460.784 677.256L447.843 672.942C349.803 635.295 367.451 525.883 415.294 519.608C465.49 513.334 481.176 558.04 483.921 569.02C490.588 560.785 488.235 536.079 486.666 506.667C565.098 545.491 643.529 457.256 669.803 389.02C702.353 304.706 774.117 370.589 774.117 370.589C774.117 370.589 845.098 503.53 920.392 444.314C987.058 390.981 973.725 265.883 871.372 237.256Z" fill="black"/>
<path d="M686.277 618.039C668.238 618.431 612.552 618.823 595.297 619.216C565.493 619.608 543.14 593.725 545.885 564.314C546.277 554.51 545.885 540.784 546.277 530.98C547.062 505.49 569.807 483.921 595.297 484.706L661.571 485.49C666.669 485.49 681.179 485.882 686.277 485.882C707.454 485.49 727.454 501.176 732.16 521.961C733.728 527.843 733.336 534.118 733.336 539.216V572.549C732.944 597.255 710.983 618.431 686.277 618.039ZM686.277 609.412C706.669 610.196 725.493 592.549 725.885 572.157C726.277 561.569 725.885 550.196 725.885 539.216C728.238 515.294 710.199 493.333 685.885 494.118C669.022 494.51 612.552 494.902 594.905 495.294C573.728 495.294 555.689 514.51 557.258 535.686C557.258 538.431 557.258 545.49 557.258 548.235C557.65 556.863 556.473 571.765 558.434 579.608C562.356 596.078 578.042 608.627 594.905 608.627H603.14C614.513 608.627 674.513 609.412 686.277 609.412Z" fill="black"/>
<path d="M844.315 496.079L813.335 496.471C804.707 496.863 794.511 495.294 787.06 500.392C780.001 505.098 776.864 513.726 777.256 521.961C777.256 532.157 777.256 542.745 776.864 552.941L776.472 551.373C781.962 570.588 789.413 589.02 800.786 605.098L796.864 602.745C800.001 603.53 805.491 603.53 808.629 603.53C820.393 603.922 834.119 604.706 845.884 604.706C856.864 604.706 867.452 596.471 869.805 585.49C870.59 582.353 870.59 576.863 870.59 573.726C870.59 556.863 870.982 540.392 870.197 523.53C870.982 508.628 859.609 495.294 844.315 496.079ZM844.315 484.314C865.099 484.314 879.609 504.314 876.08 523.922C875.295 540.785 875.688 557.255 875.688 574.118C877.648 593.726 865.884 611.373 845.492 612.941C836.864 613.334 828.629 613.334 820.393 613.726C816.08 613.726 805.491 614.51 801.57 614.51C799.609 614.902 796.472 614.51 794.511 614.51C792.943 614.51 791.374 613.334 790.59 612.157C778.433 594.118 769.805 574.118 764.707 553.334C764.707 540 763.531 526.667 764.707 513.334C767.06 497.647 781.178 484.314 797.256 483.922C808.237 483.53 833.335 484.314 844.315 484.314Z" fill="black"/>
<path d="M729.021 520.392C739.609 515.686 751.374 513.726 763.138 514.51C767.06 514.902 770.982 516.078 774.511 519.216L779.609 523.529C784.707 527.843 778.433 535.294 773.335 530.98C767.06 525.49 759.609 526.275 752.158 526.667C744.707 527.451 737.648 529.02 730.589 531.765C723.923 534.51 719.609 524.706 725.884 521.569C725.884 521.569 729.021 520.392 729.021 520.392Z" fill="black"/>
<path d="M552.55 534.51C549.805 540.784 546.668 541.569 541.57 541.176L530.197 541.569C507.452 541.569 484.315 541.177 461.57 537.647C453.727 537.255 453.335 526.275 461.178 525.882L552.158 522.745C554.903 522.745 556.864 525.49 555.688 527.843L552.55 534.51Z" fill="black"/>
<path d="M1130.2 330.588C1368.24 789.02 949.804 1306.27 450.981 1180C227.059 1124.31 47.0589 930.196 9.80403 702.353C-32.5489 475.686 69.804 232.157 261.177 103.922C523.53 -76.4704 887.059 -16.4704 1074.9 241.569C1076.08 242.745 1075.69 244.706 1074.12 245.883C1072.94 247.059 1070.98 246.667 1069.8 245.098C1043.92 211.765 1014.51 181.569 982.353 154.51C929.412 109.412 867.451 74.1179 801.961 50.1963C468.628 -70.588 102.745 130.196 29.804 478.824C-52.5489 869.412 279.608 1229.02 675.686 1175.29C981.177 1136.86 1208.24 854.902 1183.14 548.235C1177.65 474.118 1158.04 400.785 1125.49 333.334C1124.71 332.157 1125.49 330.588 1126.67 329.804C1127.84 329.02 1129.41 329.412 1130.2 330.588Z" fill="black"/>
</g>
</svg>
